<?xml version="1.0" standalone="no"?><!DOCTYPE svg PUBLIC "-//W3C//DTD SVG 1.1//EN" "http://www.w3.org/Graphics/SVG/1.1/DTD/svg11.dtd"><svg t="1736413906004" class="icon" viewBox="0 0 1024 1024" version="1.1" xmlns="http://www.w3.org/2000/svg" p-id="11911" xmlns:xlink="http://www.w3.org/1999/xlink" width="200" height="200"><path d="M497.755621 799.501152l277.096306-78.341722-149.961614-638.846711-140.458927 2.217862s-78.3076 324.575621 13.324235 714.970571z" fill="#FBB713" p-id="11912"></path><path d="M547.401616 623.914698c-38.181353-243.299497-15.388552-447.086923-0.136484-540.083597l-44.527851 0.71654s-78.3076 324.55856 13.307174 714.93645l258.807472-78.324661-8.683784-36.935938-81.958543 25.351873c-62.151326 19.2101-126.725241-21.393841-136.807984-85.660667z" fill="#020403" opacity=".25" p-id="11913"></path><path d="M628.046502 689.324576c-119.406295 0-206.841252-45.278512-212.283545-48.161734a17.043419 17.043419 0 0 1 15.951548-30.145867c1.876653 0.972447 189.541926 97.585942 384.048452-0.170605a17.060479 17.060479 0 0 1 15.32031 30.487077 448.195854 448.195854 0 0 1-203.036765 47.991129z" fill="#142A3B" p-id="11914"></path><path d="M91.733271 743.491598s25.198328 162.671671 527.680628 198.805766h312.718588v81.344366H619.413899C116.9316 987.473514 91.733271 824.818903 91.733271 824.818903v-81.327305z" fill="#FF3A2F" p-id="11915"></path><path d="M913.843653 942.297364v26.426683h-312.718588C246.864211 943.235691 129.948745 854.930649 91.733271 805.011686v19.807217s25.198328 162.654611 527.680628 198.822827h312.718588v-81.344366h-18.288834z" fill="#020403" opacity=".35" p-id="11916"></path><path d="M511.915819 900.618613a17.060479 17.060479 0 0 1-16.736331-13.88723c-5.101083-26.836134-123.517871-659.933464 1.961955-878.171117a17.060479 17.060479 0 0 1 29.582872 17.009298c-119.252751 207.404248 0.750661 848.349399 1.979015 854.79826a17.060479 17.060479 0 0 1-16.787511 20.250789z" fill="#142A3B" p-id="11917"></path></svg>