<?xml version="1.0" standalone="no"?><!DOCTYPE svg PUBLIC "-//W3C//DTD SVG 1.1//EN" "http://www.w3.org/Graphics/SVG/1.1/DTD/svg11.dtd"><svg t="1738461585850" class="icon" viewBox="0 0 1575 1024" version="1.1" xmlns="http://www.w3.org/2000/svg" p-id="9406" xmlns:xlink="http://www.w3.org/1999/xlink" width="307.6171875" height="200"><path d="M1572.864 301.686154c-104.448-122.486154-349.262769-40.96-642.284308 69.868308C637.715692 482.619077 296.723692 623.694769 0 619.835077 1.890462 729.088 78.454154 893.715692 143.044923 1024h1186.973539c34.973538-395.421538 272.305231-412.120615 242.845538-722.313846z m-588.8-30.483692l-187.470769 6.774153-7.719385-53.563077 347.451077-4.726153a2278.793846 2278.793846 0 0 1 89.403077-24.812308L1179.411692 26.781538c-186.368-36.233846-293.809231-35.603692-480.17723 2.048L309.799385 237.883077l0.708923 51.830154-29.853539 116.105846-56.398769 112.167385L76.406154 553.747692l0.236308 21.58277c344.142769-30.483692 597.464615-187.470769 907.421538-304.128z m181.011692-181.484308l8.27077 44.583384-396.445539 15.044924-7.955692-54.193231 396.130461-5.435077z m-555.323077 68.529231l123.510154-61.676308-1.575384 61.361231-121.856 53.799384v-53.563077z m0 129.181538l120.595693-60.652308-1.417846 61.44-119.099077 52.775385v-53.563077z m-125.715692-66.244923l84.519385-42.456615v50.963692l-84.519385 37.100308v-45.607385z m0 129.024l84.519385-42.535385v51.042462l-84.519385 37.336615v-45.843692z m-133.435077-58.446769l102.242462-55.138462v44.032l-102.242462 50.806154v-39.699692zM314.998154 420.627692l137.846154-54.823384V409.6L315.076923 460.8V420.627692z" fill="#1196db" p-id="9407"></path></svg>